<?xml version="1.0" standalone="no"?>
<!DOCTYPE svg PUBLIC "-//W3C//DTD SVG 20010904//EN"
 "http://www.w3.org/TR/2001/REC-SVG-20010904/DTD/svg10.dtd">
<svg version="1.0" xmlns="http://www.w3.org/2000/svg"
 width="574.000000pt" height="574.000000pt" viewBox="0 0 574.000000 574.000000"
 preserveAspectRatio="xMidYMid meet">
<metadata>
Created by potrace 1.14, written by Peter Selinger 2001-2017
</metadata>
<g transform="translate(0.000000,574.000000) scale(0.100000,-0.100000)"
fill="#000000" stroke="none">
<path d="M2758 4775 c-1 -1 -41 -6 -87 -9 -46 -4 -121 -14 -165 -22 -45 -9
-119 -17 -166 -19 -202 -7 -594 -151 -726 -268 -49 -43 -126 -182 -138 -249
-4 -24 -30 -64 -76 -120 -103 -127 -175 -239 -245 -383 -136 -281 -196 -541
-196 -851 0 -85 2 -158 4 -162 3 -4 8 -32 11 -62 16 -135 59 -303 114 -450 38
-99 123 -273 148 -301 8 -8 14 -19 14 -23 0 -4 9 -21 21 -37 l20 -29 82 41
c45 22 89 44 97 48 8 4 31 7 50 7 43 -1 43 -1 1 -161 -43 -167 -43 -169 26
-236 86 -81 98 -90 134 -94 91 -11 123 -18 180 -40 34 -14 78 -37 98 -52 40
-30 110 -104 111 -115 0 -5 8 -16 18 -26 9 -10 22 -27 28 -38 12 -20 144 -70
289 -108 184 -49 491 -70 670 -46 33 5 87 11 120 15 34 3 81 17 108 31 26 13
69 26 95 27 52 4 152 34 152 47 0 4 21 13 47 19 60 16 173 69 173 82 0 8 100
62 120 64 21 3 222 155 273 207 15 15 31 28 35 28 5 0 21 16 37 36 16 20 40
48 54 63 14 16 37 43 51 61 14 18 33 42 44 54 26 30 106 149 154 231 57 97
139 300 172 425 26 97 33 134 60 290 10 59 7 415 -4 465 -3 17 -11 59 -17 95
-36 211 -134 466 -250 657 -44 71 -50 80 -127 178 -92 118 -230 256 -327 327
-5 4 -23 18 -40 31 -36 29 -159 108 -200 129 -16 8 -46 24 -65 34 -135 77
-432 171 -590 189 -36 4 -74 9 -85 12 -24 5 -302 13 -307 8z"/>
</g>
</svg>
